<?xml version="1.0" standalone="no"?>
<!DOCTYPE svg PUBLIC "-//W3C//DTD SVG 20010904//EN"
 "http://www.w3.org/TR/2001/REC-SVG-20010904/DTD/svg10.dtd">
<svg version="1.0" xmlns="http://www.w3.org/2000/svg"
 width="500.000000pt" height="500.000000pt" viewBox="0 0 500.000000 500.000000"
 preserveAspectRatio="xMidYMid meet">
<metadata>
Created by potrace 1.14, written by Peter Selinger 2001-2017
</metadata>
<g transform="translate(0.000000,500.000000) scale(0.100000,-0.100000)"
fill="#000000" stroke="none">
<path d="M2340 4947 c-3 -3 -37 -7 -75 -11 -39 -4 -81 -8 -95 -10 -14 -2 -47
-7 -73 -11 -143 -19 -391 -91 -552 -160 -51 -22 -194 -91 -220 -107 -291 -176
-406 -265 -593 -457 -166 -171 -307 -370 -420 -597 -121 -241 -185 -443 -237
-749 -26 -153 -27 -545 -1 -680 2 -11 7 -40 11 -65 4 -25 9 -56 12 -70 27
-160 110 -410 199 -595 136 -284 361 -578 604 -790 176 -153 458 -324 692
-419 94 -37 291 -100 350 -111 13 -3 43 -9 68 -14 58 -13 117 -23 155 -27 17
-1 48 -6 70 -9 66 -11 415 -14 480 -5 33 5 86 11 117 14 32 3 68 8 80 11 13 2
34 7 48 9 14 2 43 9 65 14 22 6 51 13 65 16 128 25 338 105 525 200 234 120
432 262 606 436 279 280 477 598 597 955 27 81 58 189 68 238 2 10 6 27 9 37
3 10 8 33 10 51 3 19 7 45 10 59 3 14 8 48 11 75 3 28 7 61 10 75 3 14 7 106
9 205 3 164 -1 231 -20 380 -12 89 -14 101 -25 151 -7 27 -13 56 -15 64 -22
102 -58 220 -107 344 -162 412 -435 776 -778 1039 -8 7 -34 27 -56 45 -23 17
-45 32 -50 32 -4 0 -17 8 -28 19 -31 27 -208 131 -301 175 -204 98 -486 188
-655 210 -72 10 -126 18 -150 23 -32 6 -414 15 -420 10z"/>
</g>
</svg>
